<?xml version="1.0" encoding="utf-8"?>
<!-- Svg Vector Icons : http://www.onlinewebfonts.com/icon -->
<!DOCTYPE svg PUBLIC "-//W3C//DTD SVG 1.1//EN" "http://www.w3.org/Graphics/SVG/1.1/DTD/svg11.dtd">
<svg version="1.1" xmlns="http://www.w3.org/2000/svg" xmlns:xlink="http://www.w3.org/1999/xlink" x="0px" y="0px" viewBox="0 0 1000 1000" enable-background="new 0 0 1000 1000" xml:space="preserve">
<metadata> Svg Vector Icons : http://www.onlinewebfonts.com/icon </metadata>
<g><path d="M661.8,445.4c-14.3-10.4-35.9-7.5-46.8,6.1l-161,199.6l-53-59.3c-11.6-12.9-33.5-14.7-47.1-3.8c-7.1,5.7-11.4,13.8-12.1,22.6c-0.7,8.8,2.2,17.4,8.1,24l79.9,89.5c6.5,7.1,15.7,11.2,25.5,11.2c0.1,0,0.7,0,0.9,0c10.1-0.2,19.5-4.8,25.8-12.5l186.3-231c5.6-7,8-15.7,6.9-24.4C673.9,458.5,669.1,450.8,661.8,445.4z"/><path d="M830.1,94.5H716c16,18.9,26.2,42.7,27.9,68.9h51.8v757.7H204.4V163.4h51.8c1.7-26.2,11.9-50,27.9-68.9H169.9c-19,0-34.4,15.4-34.4,34.5v826.5c0,19,15.4,34.5,34.4,34.5H830c19,0,34.5-15.4,34.5-34.5V129C864.5,110,849.1,94.5,830.1,94.5z"/><path d="M374.6,252.9h250.8c42.7,0,77.5-34.8,77.5-77.5v-4.2c0-2.6-0.1-5.3-0.4-7.9c-3.6-35.6-31.5-64.1-66.8-68.9c-3.4-0.5-6.8-0.8-10.4-0.8h-33.5v-6.1c0-42.8-34.8-77.5-77.5-77.5h-28.6c-42.7,0-77.5,34.8-77.5,77.5v6.2h-33.6c-3.5,0-6.9,0.3-10.3,0.8c-35.3,4.7-63.2,33.2-66.8,68.9c-0.2,2.6-0.4,5.2-0.4,7.8v4.2C297.1,218.1,331.9,252.9,374.6,252.9z M338.5,171.2c0-2.7,0.4-5.3,0.9-7.9c3.6-16.2,18-28.3,35.3-28.3h54.2c11.4,0,20.6-9.2,20.6-20.6V94.5v-7c0-20,16.2-36.2,36.2-36.2h28.6c20,0,36.2,16.2,36.2,36.2v7v19.9c0,11.4,9.3,20.6,20.6,20.6h54.3c17.3,0,31.6,12.1,35.3,28.3c0.6,2.6,0.9,5.2,0.9,7.9v4.2c0,19.9-16.2,36.1-36.2,36.1H374.6c-19.9,0-36.1-16.2-36.1-36.1V171.2z"/><path d="M490.9,111.9c2.6,1.8,5.7,3.1,9.2,3.1c3.4,0,6.5-1.3,9.2-3.1c4.1-2.9,7.1-7.6,7.1-13.1c0-1.5-0.5-2.8-0.9-4.2c-1.9-6.8-7.9-12-15.4-12s-13.5,5.2-15.4,12c-0.4,1.4-0.9,2.7-0.9,4.2C483.7,104.2,486.7,108.9,490.9,111.9z"/></g>
</svg>